<svg width="50" height="46" viewBox="0 0 50 46" fill="none" xmlns="http://www.w3.org/2000/svg">
<path d="M12.75 24.5C19.5155 24.5 25 19.0155 25 12.25C25 5.48451 19.5155 0 12.75 0C5.98451 0 0.5 5.48451 0.5 12.25C0.5 19.0155 5.98451 24.5 12.75 24.5Z" fill="#9F2EC4"/>
<path d="M25 45.6777C31.7655 45.6777 37.25 40.1932 37.25 33.4277C37.25 26.6622 31.7655 21.1777 25 21.1777C18.2345 21.1777 12.75 26.6622 12.75 33.4277C12.75 40.1932 18.2345 45.6777 25 45.6777Z" fill="#5A27D5"/>
<path d="M37.25 24.5C44.0155 24.5 49.5 19.0155 49.5 12.25C49.5 5.48451 44.0155 0 37.25 0C30.4845 0 25 5.48451 25 12.25C25 19.0155 30.4845 24.5 37.25 24.5Z" fill="#4198F7"/>
</svg>
